<svg fill="#ff8828" xmlns="http://www.w3.org/2000/svg"  viewBox="0 0 50 50" width="500px" height="500px"><path d="M25,9c8.822,0,16,7.178,16,16s-7.178,16-16,16S9,33.822,9,25S16.178,9,25,9z M20.737,31.133c0-1.998,0-6.649,0-8.647	c0-0.519-0.421-0.94-0.94-0.94c-0.299,0-0.629,0-0.927,0c-0.519,0-0.94,0.421-0.94,0.94c0,1.998,0,6.649,0,8.647	c0,0.519,0.421,0.94,0.94,0.94c0.298,0,0.629,0,0.927,0C20.316,32.073,20.737,31.652,20.737,31.133z M19.333,19.44	c0.775,0,1.404-0.629,1.404-1.404c0-0.775-0.629-1.404-1.404-1.404c-0.775,0-1.404,0.629-1.404,1.404	C17.929,18.811,18.558,19.44,19.333,19.44z M34.071,31.145c0-1.676,0-5.038,0-5.038c0-2.52-2.042-4.562-4.562-4.562	c-1.227,0-2.339,0.487-3.158,1.275v-0.347c0-0.512-0.415-0.927-0.927-0.927c-0.306,0-0.646,0-0.953,0	c-0.512,0-0.927,0.415-0.927,0.927c0,1.996,0,6.677,0,8.673c0,0.512,0.415,0.927,0.927,0.927c0.306,0,0.646,0,0.953,0	c0.512,0,0.927-0.415,0.927-0.927c0-1.511,0-4.336,0-4.336c0-1.351,1.105-2.456,2.456-2.456s2.456,1.105,2.456,2.456v4.336	c0,0.512,0.415,0.927,0.927,0.927c0.306,0,0.646,0,0.953,0C33.656,32.073,34.071,31.658,34.071,31.145z"/></svg>